<svg xmlns="http://www.w3.org/2000/svg" viewBox="0 0 480 480" width="480" height="480">
<!-- Heard, Chef plate art (soup). Icon: Lucide "soup", ISC licence. -->
<style>@media (max-width: 44px) { .ico { stroke-width: 2.6px; filter: none; } .fine { display: none; } }</style>
<defs>
<radialGradient id="soup-rim" cx="0.34" cy="0.28" r="0.85"><stop offset="0" stop-color="#5b928f"/><stop offset="0.55" stop-color="#458481"/><stop offset="1" stop-color="#2f6f6d"/></radialGradient>
<radialGradient id="soup-well" cx="0.62" cy="0.7" r="0.8"><stop offset="0" stop-color="#3f7e7b"/><stop offset="0.6" stop-color="#367572"/><stop offset="1" stop-color="#205d5b"/></radialGradient>
<radialGradient id="soup-sheen" cx="0.3" cy="0.22" r="0.42"><stop offset="0" stop-color="#ffffff" stop-opacity="0.07"/><stop offset="1" stop-color="#ffffff" stop-opacity="0"/></radialGradient>
<filter id="soup-lift" x="-20%" y="-20%" width="140%" height="140%"><feDropShadow dx="0" dy="0.45" stdDeviation="0.5" flood-color="#002625" flood-opacity="0.45"/></filter>
</defs>
<circle cx="240" cy="240" r="236" fill="url(#soup-rim)"/>
<circle cx="240" cy="240" r="234.5" fill="none" stroke="#ffffff" stroke-opacity="0.12" stroke-width="3"/>
<circle cx="240" cy="236" r="188" fill="#053b3a" opacity="0.6"/>
<circle cx="240" cy="240" r="186" fill="url(#soup-well)"/>
<circle class="fine" cx="240" cy="240" r="212" fill="none" stroke="#ffffff" stroke-opacity="0.07" stroke-width="2"/>
<circle cx="240" cy="240" r="236" fill="url(#soup-sheen)"/>
<g class="ico" transform="translate(99.38 105) scale(11.25)" fill="none" stroke="#fceedc" stroke-width="1.8" stroke-linecap="round" stroke-linejoin="round" filter="url(#soup-lift)"><path d="M12 21a9 9 0 0 0 9-9H3a9 9 0 0 0 9 9Z"/><path d="M7 21h10"/><path d="M19.5 12 22 6"/><path d="M16.25 3c.27.1.8.53.75 1.36-.06.83-.93 1.2-1 2.02-.05.78.34 1.24.73 1.62"/><path d="M11.25 3c.27.1.8.53.74 1.36-.05.83-.93 1.2-.98 2.02-.06.78.33 1.24.72 1.62"/><path d="M6.25 3c.27.1.8.53.75 1.36-.06.83-.93 1.2-1 2.02-.05.78.34 1.24.74 1.62"/></g>
</svg>
